<?xml version="1.0" encoding="UTF-8" standalone="no"?>
<!DOCTYPE svg PUBLIC "-//W3C//DTD SVG 1.1//EN" "http://www.w3.org/Graphics/SVG/1.1/DTD/svg11.dtd">
<svg xmlns="http://www.w3.org/2000/svg">
<metadata/>
<defs>
<font id="comviq_sansbold" horiz-adv-x="1224">
<font-face units-per-em="2048" ascent="1536" descent="-512"/>
<missing-glyph horiz-adv-x="409"/>
<glyph horiz-adv-x="2048"/>
<glyph horiz-adv-x="2048"/>
<glyph unicode="" horiz-adv-x="2048"/>
<glyph unicode=" " horiz-adv-x="409"/>
<glyph unicode="	" horiz-adv-x="409"/>
<glyph unicode=" " horiz-adv-x="409"/>
<glyph unicode="!" horiz-adv-x="520" d="M102 0v315h316v-315h-316zM102 471v1065h316v-1065h-316z"/>
<glyph unicode="&quot;" horiz-adv-x="815" d="M82 895v641h242v-641h-242zM492 895v641h241v-641h-241z"/>
<glyph unicode="#" horiz-adv-x="1085" d="M20 438v189h201l35 282h-174v189h201l59 438h199l-60 -438h211l60 438h198l-59 -438h174v-189h-201l-35 -282h172v-189h-198l-60 -438h-198l59 438h-211l-59 -438h-199l60 438h-175zM420 627h209l37 282h-209z"/>
<glyph unicode="$" horiz-adv-x="1122" d="M41 397v92h317v-61q0 -79 48.5 -121.5t123.5 -42.5h41q84 0 138.5 41t54.5 113v18q0 64 -59.5 104.5t-196.5 73.5q-125 29 -213 74t-138.5 105t-73 129t-22.5 155v62q0 158 113 279.5t281 140.5v165h190v-165q171 -15 283 -124t112 -266v-129h-317v66q0 86 -43.5 126 t-108.5 40h-41q-71 0 -111 -41.5t-40 -114.5v-29q0 -62 60 -113t179 -79q245 -59 354 -151.5t109 -264.5v-51q0 -88 -35.5 -168.5t-95.5 -139t-139.5 -96.5t-165.5 -47v-194h-190v194q-177 15 -295.5 130t-118.5 290z"/>
<glyph unicode="%" horiz-adv-x="1536" d="M82 1174v126q0 103 80 182t192 79h66q112 0 192 -79t80 -182v-126q0 -116 -79 -197.5t-193 -81.5h-66q-114 0 -193 81.5t-79 197.5zM133 0l1034 1536h236l-1034 -1536h-236zM289 1180q0 -36 23.5 -65.5t56.5 -29.5h37q34 0 56.5 29t22.5 66v96q0 43 -22 68.5t-57 25.5 h-37q-34 0 -57 -26t-23 -68v-96zM844 254v127q0 103 80 181.5t192 78.5h66q112 0 192 -78.5t80 -181.5v-127q0 -116 -79 -197.5t-193 -81.5h-66q-114 0 -193 81.5t-79 197.5zM1051 260q0 -36 23 -65t56 -29h37q34 0 57 28.5t23 65.5v96q0 43 -22.5 69t-57.5 26h-37 q-34 0 -56.5 -26.5t-22.5 -68.5v-96z"/>
<glyph unicode="&amp;" horiz-adv-x="1386" d="M82 365v81q0 116 67 220.5t175 164.5q-71 86 -96 152.5t-25 144.5q0 114 47 211.5t140 159.5t214 62h94q121 0 214 -62t140.5 -159.5t47.5 -211.5v-88h-318v66q0 166 -120 166h-21q-59 0 -90 -44.5t-31 -121.5q0 -98 101 -211l288 -346q29 48 29 133h274 q0 -215 -112 -365l286 -342h-348l-100 121q-60 -57 -157 -89t-201 -32h-82q-171 0 -293.5 114t-122.5 276zM381 393q0 -56 49 -102.5t107 -46.5h41q56 0 103.5 18.5t72.5 54.5l-250 297q-123 -81 -123 -190v-31z"/>
<glyph unicode="'" horiz-adv-x="405" d="M82 895v641h242v-641h-242z"/>
<glyph unicode="(" horiz-adv-x="679" d="M82 322v892q0 157 46 286.5t181 289.5h330q-83 -83 -136.5 -158t-79.5 -147t-35 -132t-9 -139v-892q0 -79 9 -139.5t35 -132t79.5 -146.5t136.5 -158h-330q-135 160 -181 289t-46 287z"/>
<glyph unicode=")" horiz-adv-x="679" d="M41 -254q83 83 136.5 158t79.5 146.5t35 132t9 139.5v892q0 79 -9 139t-35 132t-79.5 147t-136.5 158h330q135 -160 181 -289.5t46 -286.5v-892q0 -158 -46 -287t-181 -289h-330z"/>
<glyph unicode="*" horiz-adv-x="847" d="M41 1188l61 190l224 -86v244h190v-244l219 86l72 -184l-229 -82l143 -197l-158 -112l-141 201l-146 -203l-155 117l143 194z"/>
<glyph unicode="+" horiz-adv-x="1024" d="M82 614v217h326v343h225v-343h309v-217h-309v-342h-225v342h-326z"/>
<glyph unicode="," horiz-adv-x="520" d="M102 0v315h316v-233q0 -86 -27.5 -157t-73 -117.5t-100.5 -74t-115 -34.5v145q53 13 89 58.5t38 97.5h-127z"/>
<glyph unicode="-" horiz-adv-x="737" d="M102 573v281h533v-281h-533z"/>
<glyph unicode="." horiz-adv-x="520" d="M102 0v315h316v-315h-316z"/>
<glyph unicode="/" horiz-adv-x="794" d="M20 0l482 1536h272l-481 -1536h-273z"/>
<glyph unicode="0" d="M102 438v690q0 111 60.5 211t165.5 161t227 61h115q91 0 175.5 -36t144.5 -95.5t96 -139t36 -162.5v-690q0 -192 -132.5 -327.5t-319.5 -135.5h-115q-123 0 -227.5 62t-165 168.5t-60.5 232.5zM420 449q0 -71 47 -128t115 -57h61q68 0 115 57t47 128v636q0 85 -45 136 t-117 51h-61q-72 0 -117 -51t-45 -136v-636z"/>
<glyph unicode="1" horiz-adv-x="829" d="M41 1061v270l414 205h211v-1536h-314v1194z"/>
<glyph unicode="2" horiz-adv-x="1148" d="M82 0v199l510 581q73 83 112 163t39 142v31q0 65 -36.5 110.5t-104.5 45.5h-61q-58 0 -100 -49t-42 -117v-66h-317v129q0 169 122.5 280.5t309.5 111.5h115q184 0 308 -125t124 -297v-84q0 -65 -12.5 -118t-44 -105t-63 -92.5t-89.5 -109.5q-2 -3 -3.5 -4.5t-4 -4.5 t-4.5 -5l-281 -335h508v-281h-985z"/>
<glyph unicode="3" horiz-adv-x="1204" d="M82 397v52h317v-21q0 -80 44 -122t118 -42h62q83 0 132.5 41t49.5 113v28q0 95 -63.5 151t-196.5 56h-125v260h104q124 0 182 46t58 139v18q0 74 -35.5 115t-105.5 41h-62q-64 0 -102.5 -39.5t-38.5 -126.5v-25h-318v88q0 169 123 280.5t310 111.5h114q184 0 308 -125 t124 -297v-62q0 -92 -49 -179.5t-125 -121.5q96 -33 155.5 -114t59.5 -183v-51q0 -125 -66 -230t-174.5 -164t-232.5 -59h-114q-192 0 -322.5 117t-130.5 305z"/>
<glyph unicode="4" horiz-adv-x="1163" d="M41 281v239l563 1016h354v-975h164v-280h-164v-281h-313v281h-604zM350 561h295v529h-4z"/>
<glyph unicode="5" horiz-adv-x="1183" d="M82 438v51h317v-40q0 -71 47 -128t115 -57h62q68 0 114.5 57t46.5 128v63q0 84 -49.5 135t-122.5 51h-510l103 838h794v-281h-520l-33 -276h193q122 0 229.5 -58.5t170.5 -156.5t63 -209v-117q0 -126 -60.5 -232.5t-165 -168.5t-227.5 -62h-114q-123 0 -227.5 62 t-165 168.5t-60.5 232.5z"/>
<glyph unicode="6" horiz-adv-x="1204" d="M102 428v711q0 170 133.5 296t319.5 126h94q123 0 227.5 -58.5t165 -158.5t60.5 -216v-67h-318v24q0 85 -45 136t-116 51h-41q-72 0 -117 -51t-45 -136v-178q70 39 155 39h95q125 0 227.5 -52.5t163.5 -152t61 -227.5v-86q0 -191 -132 -322t-320 -131h-115 q-189 0 -321 131t-132 322zM420 449q0 -69 51.5 -127t120.5 -58h41q69 0 120.5 58t51.5 127v22q0 84 -49.5 135t-122.5 51h-70q-41 0 -80.5 -13t-62.5 -30v-165z"/>
<glyph unicode="7" horiz-adv-x="1026" d="M41 1255v281h944v-199l-553 -1337h-338l543 1255h-596z"/>
<glyph unicode="8" d="M82 408v92q0 104 60.5 194.5t154.5 122.5q-78 35 -126 113t-48 168v61q0 72 31.5 144t85.5 129.5t134.5 93t170.5 35.5h135q90 0 170.5 -35.5t134.5 -93t85.5 -129.5t31.5 -144v-61q0 -90 -48 -168t-126 -113q94 -32 154.5 -122.5t60.5 -194.5v-92q0 -109 -63 -209 t-170.5 -162t-229.5 -62h-135q-98 0 -185.5 36.5t-147.5 97t-95 139t-35 160.5zM408 414q0 -72 50.5 -113t133.5 -41h55q77 3 123.5 44t46.5 110v75q0 69 -46.5 110t-123.5 44h-55q-83 0 -133.5 -41t-50.5 -113v-75zM440 1069q0 -72 40 -114t112 -42h41q71 0 111 41.5 t40 114.5v47q0 73 -40 114.5t-111 41.5h-41q-72 0 -112 -42t-40 -114v-47z"/>
<glyph unicode="9" horiz-adv-x="1204" d="M82 1022v86q0 191 132 322t321 131h114q189 0 321 -131t132 -322v-711q0 -170 -133.5 -296t-319.5 -126h-94q-123 0 -227.5 58.5t-165 158.5t-60.5 216v67h318v-24q0 -85 45 -136t117 -51h41q71 0 116 51t45 136v178q-70 -39 -155 -39h-94q-192 0 -322.5 120t-130.5 312z M399 1065q0 -84 49.5 -135t122.5 -51h70q41 0 80.5 13t62.5 30v165q0 69 -51.5 127t-120.5 58h-41q-69 0 -120.5 -58t-51.5 -127v-22z"/>
<glyph unicode=":" horiz-adv-x="520" d="M102 0v315h316v-315h-316zM102 784v316h316v-316h-316z"/>
<glyph unicode=";" horiz-adv-x="520" d="M102 0v315h316v-233q0 -86 -27.5 -157t-73 -117.5t-100.5 -74t-115 -34.5v145q53 13 89 58.5t38 97.5h-127zM102 784v316h316v-316h-316z"/>
<glyph unicode="&lt;" horiz-adv-x="1024" d="M82 635v174l860 354v-221l-555 -221l555 -221v-219z"/>
<glyph unicode="=" horiz-adv-x="1024" d="M82 418v217h860v-217h-860zM82 809v217h860v-217h-860z"/>
<glyph unicode="&gt;" horiz-adv-x="1024" d="M82 281v219l555 221l-555 221v221l860 -354v-174z"/>
<glyph unicode="?" horiz-adv-x="1019" d="M41 1040v88q0 114 47 211.5t140 159.5t214 62h95q121 0 214 -62t140 -159.5t47 -211.5q0 -99 -9 -163t-33 -107.5t-52 -69t-80 -57.5q-88 -53 -112.5 -87t-24.5 -87v-86h-316v104q0 104 42 179.5t141 138.5q74 49 100.5 91.5t26.5 100.5q0 187 -132 187q-131 0 -131 -187 v-45h-317zM311 0v315h316v-315h-316z"/>
<glyph unicode="@" horiz-adv-x="1697" d="M123 434v303q0 119 51 232t137 198.5t206.5 137t252.5 51.5h156q132 0 253.5 -51.5t207.5 -137t137 -198.5t51 -232v-221q0 -195 -91.5 -306.5t-240.5 -111.5h-67q-94 0 -146 80q-55 -80 -186 -80h-68q-126 0 -206.5 58.5t-80.5 158.5v62q0 106 73 172.5t194 66.5h53 q129 0 156 -51h2v172q0 44 -24.5 74.5t-70.5 30.5h-43q-40 0 -63 -29t-23 -65v-5h-196v2q0 121 68.5 196t193.5 75h86q129 0 207 -80.5t78 -212.5v-367q0 -75 63 -75h25q63 0 103 60.5t40 174.5v221q0 117 -64 221.5t-177 169t-244 64.5h-156q-131 0 -243 -64.5t-176 -169 t-64 -221.5v-303q0 -206 141.5 -353t341.5 -147h156q125 0 241 66h250q-92 -107 -218.5 -168t-272.5 -61h-156q-177 0 -326 89t-235 241.5t-86 332.5zM709 358q0 -43 30 -74.5t72 -31.5h47q44 0 74.5 31.5t30.5 74.5v17q0 44 -30.5 75t-74.5 31h-47q-43 0 -72.5 -31 t-29.5 -75v-17z"/>
<glyph unicode="A" horiz-adv-x="1208" d="M20 0l388 1536h389l391 -1536h-324l-67 301h-391l-70 -301h-316zM467 571h268l-135 598z"/>
<glyph unicode="B" horiz-adv-x="1120" d="M102 0v1536h453q191 0 316.5 -102.5t125.5 -268.5v-75q0 -101 -30.5 -170t-118.5 -132q88 -34 149.5 -121.5t61.5 -179.5v-96q0 -170 -118 -280.5t-304 -110.5h-535zM416 281h133q99 0 145.5 38.5t46.5 126.5v33q0 75 -48.5 119.5t-137.5 44.5h-139v-362zM416 913h133 q67 0 109 43.5t42 100.5v53q0 66 -40.5 105.5t-110.5 39.5h-133v-342z"/>
<glyph unicode="C" d="M102 438v690q0 111 63 211t170.5 161t229.5 61h94q122 0 229.5 -61t170.5 -161t63 -211v-170h-317v127q0 84 -49.5 135.5t-122.5 51.5h-41q-73 0 -122.5 -51.5t-49.5 -135.5v-636q0 -69 51.5 -127t120.5 -58h41q69 0 120.5 58t51.5 127v165h317v-176q0 -125 -63 -232 t-170 -169t-230 -62h-94q-123 0 -230 62t-170 169t-63 232z"/>
<glyph unicode="D" horiz-adv-x="1181" d="M102 0v1536h514q122 0 229.5 -60.5t170.5 -160.5t63 -211v-641q0 -125 -63 -232t-170 -169t-230 -62h-514zM416 289h174q69 0 120.5 57.5t51.5 126.5v588q0 84 -49.5 135t-122.5 51h-174v-958z"/>
<glyph unicode="E" horiz-adv-x="1003" d="M102 0v1536h820v-281h-506v-342h424v-270h-424v-362h506v-281h-820z"/>
<glyph unicode="F" horiz-adv-x="942" d="M102 0v1536h799v-281h-485v-403h403v-270h-403v-582h-314z"/>
<glyph unicode="G" d="M102 438v690q0 111 63 211t170.5 161t229.5 61h94q122 0 229.5 -61t170.5 -161t63 -211v-129h-317v86q0 84 -49.5 135.5t-122.5 51.5h-41q-73 0 -122.5 -51.5t-49.5 -135.5v-636q0 -69 51.5 -127t120.5 -58h41q89 0 140.5 56t51.5 129v83h-204v261h501v-355 q0 -125 -63 -232t-170 -169t-230 -62h-94q-123 0 -230 62t-170 169t-63 232z"/>
<glyph unicode="H" horiz-adv-x="1214" d="M102 0v1536h314v-623h383v623h313v-1536h-313v633h-383v-633h-314z"/>
<glyph unicode="I" horiz-adv-x="559" d="M123 0v1536h313v-1536h-313z"/>
<glyph unicode="J" horiz-adv-x="782" d="M41 0v281h190q66 0 98.5 54t32.5 130v1071h318v-1073q0 -130 -42 -233.5t-130 -166.5t-209 -63h-258z"/>
<glyph unicode="K" horiz-adv-x="1241" d="M123 0v1536h313v-623h82l318 623h325l-381 -748l441 -788h-359l-344 653h-82v-653h-313z"/>
<glyph unicode="L" horiz-adv-x="901" d="M102 0v1536h314v-1255h465v-281h-779z"/>
<glyph unicode="M" horiz-adv-x="1351" d="M102 0v1536h281l299 -674l305 674h262v-1536h-307v834l-244 -533h-51l-239 533v-834h-306z"/>
<glyph unicode="N" d="M102 0v1536h285l430 -907v907h305v-1536h-284l-430 854v-854h-306z"/>
<glyph unicode="O" d="M102 438v690q0 111 63 211t170.5 161t229.5 61h94q122 0 229.5 -61t170.5 -161t63 -211v-690q0 -125 -63 -232t-170 -169t-230 -62h-94q-123 0 -230 62t-170 169t-63 232zM420 449q0 -69 51.5 -127t120.5 -58h41q69 0 120.5 58t51.5 127v636q0 84 -49.5 135.5 t-122.5 51.5h-41q-73 0 -122.5 -51.5t-49.5 -135.5v-636z"/>
<glyph unicode="P" horiz-adv-x="1099" d="M102 0v1536h494q188 0 315 -129t127 -324v-108q0 -126 -58 -232.5t-159.5 -168.5t-224.5 -62h-180v-512h-314zM416 801h133q75 0 123.5 47t48.5 137v84q0 94 -48 140t-124 46h-133v-454z"/>
<glyph unicode="Q" d="M102 438v690q0 111 63 211t170.5 161t229.5 61h94q122 0 229.5 -61t170.5 -161t63 -211v-690q0 -171 -116 -307l116 -156l-207 -127l-90 160q-84 -33 -166 -33h-94q-123 0 -230 62t-170 169t-63 232zM420 449q0 -69 51.5 -127t120.5 -58h41q69 0 120.5 58t51.5 127v636 q0 84 -49.5 135.5t-122.5 51.5h-41q-73 0 -122.5 -51.5t-49.5 -135.5v-636z"/>
<glyph unicode="R" horiz-adv-x="1167" d="M102 0v1536h535q186 0 314 -133t128 -320v-88q0 -129 -61 -236.5t-164 -168.5l252 -590h-336l-211 532h-143v-532h-314zM416 821h174q75 0 123.5 46.5t48.5 138.5v63q0 96 -47.5 141t-124.5 45h-174v-434z"/>
<glyph unicode="S" horiz-adv-x="1122" d="M41 397v92h317v-61q0 -79 48.5 -121.5t123.5 -42.5h41q84 0 138.5 41t54.5 113v18q0 64 -59.5 104.5t-196.5 73.5q-125 29 -213 74t-138.5 105t-73 129t-22.5 155v62q0 171 129 296.5t314 125.5h94q188 0 315 -112t127 -280v-129h-317v66q0 86 -43.5 126t-108.5 40h-41 q-71 0 -111 -41.5t-40 -114.5v-29q0 -62 60 -113t179 -79q245 -59 354 -151.5t109 -264.5v-51q0 -124 -68.5 -229.5t-179.5 -164.5t-235 -59h-94q-125 0 -230 51.5t-169 149t-64 221.5z"/>
<glyph unicode="T" horiz-adv-x="1038" d="M20 1255v281h998v-281h-342v-1255h-314v1255h-342z"/>
<glyph unicode="U" d="M102 438v1098h318v-1087q0 -69 51.5 -127t120.5 -58h41q69 0 120.5 58t51.5 127v1087h317v-1098q0 -125 -63 -232t-170 -169t-230 -62h-94q-123 0 -230 62t-170 169t-63 232z"/>
<glyph unicode="V" horiz-adv-x="1208" d="M20 1536h316l264 -1149l264 1149h324l-391 -1536h-389z"/>
<glyph unicode="W" horiz-adv-x="1652" d="M20 1536h322l143 -1032l201 1032h281l204 -1032l140 1032h321l-307 -1536h-332l-172 860l-182 -860h-332z"/>
<glyph unicode="X" horiz-adv-x="1134" d="M20 0l334 786l-317 750h305l223 -551h4l224 551h305l-318 -750l334 -786h-317l-228 553h-4l-227 -553h-318z"/>
<glyph unicode="Y" horiz-adv-x="1130" d="M0 1536h322l235 -602l252 602h321l-417 -895v-641h-314v639z"/>
<glyph unicode="Z" horiz-adv-x="1085" d="M82 0v199l534 1056h-514v281h881v-199l-524 -1056h545v-281h-922z"/>
<glyph unicode="[" horiz-adv-x="700" d="M82 -283v2075h496v-283h-201v-1509h201v-283h-496z"/>
<glyph unicode="\" horiz-adv-x="753" d="M20 1536h232l481 -1536h-231z"/>
<glyph unicode="]" horiz-adv-x="700" d="M123 0h201v1509h-201v283h495v-2075h-495v283z"/>
<glyph unicode="_" horiz-adv-x="1024" d="M0 0h1024v-217h-1024v217z"/>
<glyph unicode="`" horiz-adv-x="675" d="M82 1509h348l164 -254h-213z"/>
<glyph unicode="a" horiz-adv-x="1093" d="M61 266v29q0 142 95.5 230.5t257.5 88.5h47q60 0 116.5 -19t88.5 -54h2v213q0 50 -26 83t-77 33h-57q-44 0 -68 -31.5t-24 -72.5v-21h-283v19q0 161 91 260.5t259 99.5h107q173 0 277 -106t104 -283v-413q0 -41 20.5 -59t61.5 -23v-240q-70 -25 -181 -25q-113 0 -165 86 h-2q-35 -43 -102 -64.5t-142 -21.5h-47q-165 0 -259 77t-94 214zM371 291q0 -49 37 -84t88 -35h39q51 0 89 35t38 84v20q0 49 -38 84t-89 35h-39q-51 0 -88 -35t-37 -84v-20z"/>
<glyph unicode="b" horiz-adv-x="1046" d="M82 0v1509h303v-487h2q20 53 78 77.5t125 24.5h76q158 0 238.5 -121.5t80.5 -322.5v-289q0 -416 -319 -416h-95q-55 0 -107 28t-77 71h-2l-20 -74h-283zM385 387q0 -68 35 -113t100 -45h21q65 0 100 45t35 113v324q0 72 -35 115.5t-100 43.5h-21q-65 0 -100 -43.5 t-35 -115.5v-324z"/>
<glyph unicode="c" horiz-adv-x="1019" d="M61 420v289q0 110 46.5 203.5t138 152.5t209.5 59h110q176 0 284.5 -122.5t108.5 -292.5v-33h-303v37q0 70 -30.5 113.5t-94.5 43.5h-41q-64 0 -94 -43.5t-30 -113.5v-324q0 -72 30 -116t94 -44h41q64 0 94.5 44.5t30.5 115.5v45h303v-14q0 -190 -107.5 -317.5 t-285.5 -127.5h-110q-178 0 -286 127.5t-108 317.5z"/>
<glyph unicode="d" horiz-adv-x="1046" d="M61 391v289q0 201 81 322.5t239 121.5h76q67 0 124.5 -24.5t77.5 -77.5h3v487h303v-1509h-283l-20 74h-3q-25 -43 -77 -71t-107 -28h-94q-161 0 -240.5 108.5t-79.5 307.5zM371 387q0 -68 35 -113t100 -45h20q65 0 100.5 45t35.5 113v324q0 71 -35 115t-101 44h-20 q-65 0 -100 -43.5t-35 -115.5v-324z"/>
<glyph unicode="e" horiz-adv-x="1019" d="M61 420v289q0 110 46.5 203.5t138 152.5t209.5 59h110q176 0 284.5 -122.5t108.5 -292.5v-211h-593v-109q0 -73 30 -116.5t94 -43.5h41q108 0 125 129h303q0 -51 -16 -104t-49.5 -103t-79 -89t-110.5 -63t-138 -24h-110q-178 0 -286 127.5t-108 317.5zM365 696h290v17 q0 70 -30.5 113.5t-94.5 43.5h-41q-64 0 -94 -43.5t-30 -113.5v-17z"/>
<glyph unicode="f" horiz-adv-x="671" d="M20 840v260h123v82q0 136 94.5 231.5t233.5 95.5h180v-262h-102q-107 0 -107 -94v-53h168v-260h-164v-840h-303v840h-123z"/>
<glyph unicode="g" horiz-adv-x="1046" d="M61 393v295q0 192 84 314t242 122h94q57 0 108.5 -28.5t69.5 -73.5h3l20 78h283v-1161q0 -173 -110 -281.5t-284 -108.5h-106q-168 0 -271.5 99.5t-103.5 240.5v19h293v-21q0 -47 27 -79.5t79 -32.5h58q64 0 89.5 36.5t25.5 108.5v182h-3q-13 -53 -66.5 -77.5 t-129.5 -24.5h-76q-162 0 -244 102.5t-82 290.5zM371 420q0 -72 36 -116t89 -44h39q53 0 90 44.5t37 115.5v293q0 66 -37.5 111.5t-89.5 45.5h-39q-52 0 -88.5 -45t-36.5 -112v-293z"/>
<glyph unicode="h" horiz-adv-x="1060" d="M82 0v1509h303v-483h2q25 43 76.5 70.5t107.5 27.5h95q160 0 236.5 -108t76.5 -307v-709h-303v713q0 70 -30.5 113.5t-94.5 43.5h-41q-64 0 -94.5 -43.5t-30.5 -113.5v-713h-303z"/>
<glyph unicode="i" horiz-adv-x="507" d="M102 0v1100h304v-1100h-304zM102 1206v303h304v-303h-304z"/>
<glyph unicode="j" horiz-adv-x="507" d="M-61 -143h41q59 0 90.5 39t31.5 104v1100h304v-1182q0 -136 -95 -232t-233 -96h-139v267zM102 1206v303h304v-303h-304z"/>
<glyph unicode="k" horiz-adv-x="1054" d="M82 0v1509h303v-792h82l182 383h316l-256 -512l325 -588h-327l-240 457h-82v-457h-303z"/>
<glyph unicode="l" horiz-adv-x="507" d="M102 0v1509h304v-1509h-304z"/>
<glyph unicode="m" horiz-adv-x="1531" d="M82 0v1100h283l20 -74h2q24 42 81 70t114 28h94q66 0 108 -25t74 -73h2q24 41 89.5 69.5t123.5 28.5h94q80 0 136 -28.5t88 -85t45.5 -129.5t13.5 -172v-709h-303v711q0 159 -98 159h-39q-48 0 -70 -38.5t-22 -122.5v-709h-304v711q0 83 -24 121t-74 38h-37 q-94 0 -94 -159v-711h-303z"/>
<glyph unicode="n" horiz-adv-x="1060" d="M82 0v1100h283l20 -74h2q25 43 76.5 70.5t107.5 27.5h95q159 0 236 -110t77 -305v-709h-303v713q0 70 -30.5 113.5t-94.5 43.5h-41q-64 0 -94.5 -43.5t-30.5 -113.5v-713h-303z"/>
<glyph unicode="o" horiz-adv-x="1019" d="M61 420v289q0 110 46.5 203.5t138 152.5t209.5 59h110q176 0 284.5 -122.5t108.5 -292.5v-289q0 -190 -107.5 -317.5t-285.5 -127.5h-110q-178 0 -286 127.5t-108 317.5zM365 387q0 -70 30 -114t94 -44h41q64 0 94.5 44t30.5 114v324q0 73 -30.5 116t-94.5 43h-41 q-124 0 -124 -159v-324z"/>
<glyph unicode="p" horiz-adv-x="1046" d="M82 -410v1510h283l20 -74h2q25 43 76.5 70.5t107.5 27.5h95q106 0 179.5 -57.5t106.5 -149t33 -208.5v-289q0 -198 -81 -321.5t-238 -123.5h-76q-67 0 -125 24.5t-78 78.5h-2v-488h-303zM385 387q0 -68 35 -113t100 -45h21q65 0 100 45t35 113v324q0 72 -35 115.5 t-100 43.5h-21q-65 0 -100 -43.5t-35 -115.5v-324z"/>
<glyph unicode="q" horiz-adv-x="1046" d="M61 420v289q0 192 80.5 303.5t239.5 111.5h94q56 0 107.5 -27.5t76.5 -70.5h3l20 74h283v-1510h-303v488h-3q-20 -54 -77.5 -78.5t-124.5 -24.5h-76q-106 0 -179.5 60.5t-107 158.5t-33.5 226zM371 387q0 -68 35 -113t100 -45h20q65 0 100.5 45t35.5 113v324 q0 71 -35 115t-101 44h-20q-65 0 -100 -43.5t-35 -115.5v-324z"/>
<glyph unicode="r" horiz-adv-x="882" d="M82 0v1100h283l20 -74h2q24 41 80 69.5t104 28.5h74q217 0 217 -348v-67h-303v28q0 63 -22 98t-58 35h-18q-76 0 -76 -139v-731h-303z"/>
<glyph unicode="s" horiz-adv-x="954" d="M41 299v47h303v-45q0 -39 31 -67.5t84 -28.5h41q51 0 81.5 27.5t30.5 62.5v22q0 26 -39 53.5t-129 45.5q-192 38 -289.5 133.5t-97.5 216.5v45q0 139 99 226t254 87h98q166 0 269.5 -84.5t103.5 -216.5v-78h-283v52q0 45 -29 71.5t-71 26.5h-41q-40 0 -69.5 -26 t-29.5 -64v-21q0 -35 43.5 -67t133.5 -51q192 -39 285 -115t93 -203v-51q0 -147 -105 -234.5t-280 -87.5h-88q-175 0 -287 89t-112 235z"/>
<glyph unicode="t" horiz-adv-x="976" d="M20 840v260h144l41 258h262v-258h410v-260h-410v-473q0 -138 98 -138h17q84 0 84 133v33h290v-80q0 -154 -90.5 -247t-259.5 -93h-65q-172 0 -274.5 96.5t-102.5 252.5v516h-144z"/>
<glyph unicode="u" horiz-adv-x="1060" d="M82 391v709h303v-713q0 -70 30.5 -114t94.5 -44h41q64 0 94.5 44t30.5 114v713h303v-1100h-283l-20 74h-2q-25 -43 -77.5 -71t-107.5 -28h-94q-158 0 -235.5 111t-77.5 305z"/>
<glyph unicode="v" horiz-adv-x="1015" d="M20 1100h312l178 -781l174 781h311l-311 -1100h-373z"/>
<glyph unicode="w" horiz-adv-x="1433" d="M20 1100h312l96 -760l154 760h270l158 -760l92 760h311l-229 -1100h-353l-120 612l-129 -612h-353z"/>
<glyph unicode="x" horiz-adv-x="921" d="M20 0l238 557l-235 543h294l142 -365h4l139 365h295l-233 -543l237 -557h-307l-131 344h-4l-131 -344h-308z"/>
<glyph unicode="y" horiz-adv-x="1015" d="M20 1100h312l172 -756l180 756h311l-350 -1241q-39 -146 -140 -207.5t-259 -61.5h-144v267h138q61 0 92.5 24t48.5 84l10 35h-80z"/>
<glyph unicode="z" horiz-adv-x="901" d="M41 0v178l432 662h-412v260h779v-178l-422 -662h442v-260h-819z"/>
<glyph unicode="|" horiz-adv-x="614" d="M205 -410v2356h205v-2356h-205z"/>
<glyph unicode="¨" horiz-adv-x="880" d="M82 1206v303h303v-303h-303zM496 1206v303h303v-303h-303z"/>
<glyph unicode="©" horiz-adv-x="1697" d="M123 639v303q0 119 51 232t137 198.5t206.5 137t252.5 51.5h156q132 0 253.5 -51.5t207.5 -137t137 -198.5t51 -232v-303q0 -180 -86 -332.5t-235.5 -242t-327.5 -89.5h-156q-177 0 -326 89.5t-235 242t-86 332.5zM287 639q0 -206 141.5 -353t341.5 -147h156 q133 0 244.5 67.5t176 182.5t64.5 250v303q0 117 -64 221.5t-177 169t-244 64.5h-156q-131 0 -243 -64.5t-176 -169t-64 -221.5v-303zM518 565v424q0 105 85 185.5t200 80.5h80q115 0 199.5 -80.5t84.5 -185.5v-94h-196v68q0 52 -30.5 83t-74.5 31h-47q-44 0 -74 -31 t-30 -83v-392q0 -42 31 -77t73 -35h47q42 0 73.5 35t31.5 77v103h196v-109q0 -118 -84 -201t-200 -83h-80q-116 0 -200.5 83t-84.5 201z"/>
<glyph unicode="­" horiz-adv-x="737" d="M102 573v281h533v-281h-533z"/>
<glyph unicode="®" horiz-adv-x="851" d="M41 1085v156q0 127 98.5 223.5t235.5 96.5h100q139 0 237.5 -96.5t98.5 -223.5v-156q0 -142 -98 -242t-238 -100h-100q-139 0 -236.5 100.5t-97.5 241.5zM143 1085q0 -99 68 -169t164 -70h100q98 0 166 70t68 169v156q0 86 -68.5 151.5t-165.5 65.5h-100 q-95 0 -163.5 -65.5t-68.5 -151.5v-156zM258 895v504h197q60 0 102.5 -42.5t42.5 -99.5v-36q0 -41 -20 -77.5t-54 -56.5l84 -192h-112l-68 174h-70v-174h-102zM360 1165h80q25 0 40.5 14.5t15.5 45.5v18q0 31 -15.5 46.5t-40.5 15.5h-80v-140z"/>
<glyph unicode="°" horiz-adv-x="831" d="M82 1227q0 138 98 236t236 98t236 -98t98 -236t-98 -235t-236 -97t-236 97t-98 235zM262 1225q0 -64 45.5 -108t110.5 -44t109 44t44 108q0 66 -44 110.5t-109 44.5t-110.5 -44.5t-45.5 -110.5z"/>
<glyph unicode="´" horiz-adv-x="675" d="M82 1255l164 254h348l-299 -254h-213z"/>
<glyph unicode="¶" horiz-adv-x="1138" d="M82 1139q0 194 124 295.5t333 101.5h436v-1946h-148v1807h-163v-1807h-148v1164q-189 0 -311.5 106.5t-122.5 278.5z"/>
<glyph unicode="·" horiz-adv-x="684" d="M184 459v315h316v-315h-316z"/>
<glyph unicode="À" horiz-adv-x="1208" d="M20 0l388 1536h389l391 -1536h-324l-67 301h-391l-70 -301h-316zM244 1888h348l164 -254h-213zM467 571h268l-135 598z"/>
<glyph unicode="Ä" horiz-adv-x="1208" d="M20 0l388 1536h389l391 -1536h-324l-67 301h-391l-70 -301h-316zM236 1606v303h303v-303h-303zM467 571h268l-135 598zM649 1606v303h303v-303h-303z"/>
<glyph unicode="Å" horiz-adv-x="1208" d="M20 0l388 1536h389l391 -1536h-324l-67 301h-391l-70 -301h-316zM352 1802q0 98 69 167t167 69t166.5 -69t68.5 -167t-68.5 -166.5t-166.5 -68.5t-167 68.5t-69 166.5zM467 571h268l-135 598zM508 1802q0 -34 23 -57t57 -23t57 23t23 57t-23 57t-57 23t-57 -23t-23 -57z "/>
<glyph unicode="Æ" horiz-adv-x="1755" d="M20 0l717 1536h936v-281h-506v-342h424v-270h-424v-362h506v-281h-821v301h-367l-129 -301h-336zM600 575h252v584z"/>
<glyph unicode="É" horiz-adv-x="1003" d="M102 0v1536h820v-281h-506v-342h424v-270h-424v-362h506v-281h-820zM326 1634l163 254h349l-299 -254h-213z"/>
<glyph unicode="Ö" d="M102 438v690q0 111 63 211t170.5 161t229.5 61h94q122 0 229.5 -61t170.5 -161t63 -211v-690q0 -125 -63 -232t-170 -169t-230 -62h-94q-123 0 -230 62t-170 169t-63 232zM233 1606v303h304v-303h-304zM420 449q0 -69 51.5 -127t120.5 -58h41q69 0 120.5 58t51.5 127v636 q0 84 -49.5 135.5t-122.5 51.5h-41q-73 0 -122.5 -51.5t-49.5 -135.5v-636zM688 1606v303h303v-303h-303z"/>
<glyph unicode="Ø" d="M61 0l117 186q-76 112 -76 252v690q0 111 63 211t170.5 161t229.5 61h94q174 0 310 -119l59 94h135l-114 -182q73 -110 73 -226v-690q0 -125 -63 -232t-170 -169t-230 -62h-94q-174 0 -309 119l-59 -94h-136zM420 569l373 592q-20 52 -63 81.5t-97 29.5h-41 q-73 0 -122.5 -51.5t-49.5 -135.5v-516zM434 377q21 -48 64.5 -80.5t93.5 -32.5h41q69 0 120.5 58t51.5 127v516z"/>
<glyph unicode="Ü" d="M102 438v1098h318v-1087q0 -69 51.5 -127t120.5 -58h41q69 0 120.5 58t51.5 127v1087h317v-1098q0 -125 -63 -232t-170 -169t-230 -62h-94q-123 0 -230 62t-170 169t-63 232zM229 1606v303h303v-303h-303zM684 1606v303h303v-303h-303z"/>
<glyph unicode="à" horiz-adv-x="1073" d="M61 266v29q0 142 95.5 230.5t257.5 88.5h47q60 0 116.5 -19t88.5 -54h2v213q0 50 -26 83t-77 33h-57q-44 0 -68 -31.5t-24 -72.5v-21h-283v19q0 161 91 260.5t259 99.5h107q173 0 277 -106t104 -283v-413q0 -41 20.5 -59t61.5 -23v-240q-70 -25 -181 -25q-113 0 -165 86 h-2q-35 -43 -102 -64.5t-142 -21.5h-47q-165 0 -259 77t-94 214zM225 1509h348l164 -254h-213zM371 291q0 -49 37 -84t88 -35h39q51 0 89 35t38 84v20q0 49 -38 84t-89 35h-39q-51 0 -88 -35t-37 -84v-20z"/>
<glyph unicode="ä" horiz-adv-x="1073" d="M61 266v29q0 142 95.5 230.5t257.5 88.5h47q60 0 116.5 -19t88.5 -54h2v213q0 50 -26 83t-77 33h-57q-44 0 -68 -31.5t-24 -72.5v-21h-283v19q0 161 91 260.5t259 99.5h107q173 0 277 -106t104 -283v-413q0 -41 20.5 -59t61.5 -23v-240q-70 -25 -181 -25q-113 0 -165 86 h-2q-35 -43 -102 -64.5t-142 -21.5h-47q-165 0 -259 77t-94 214zM184 1206v303h303v-303h-303zM371 291q0 -49 37 -84t88 -35h39q51 0 89 35t38 84v20q0 49 -38 84t-89 35h-39q-51 0 -88 -35t-37 -84v-20zM598 1206v303h303v-303h-303z"/>
<glyph unicode="å" horiz-adv-x="1073" d="M61 266v29q0 142 95.5 230.5t257.5 88.5h47q60 0 116.5 -19t88.5 -54h2v213q0 50 -26 83t-77 33h-57q-44 0 -68 -31.5t-24 -72.5v-21h-283v19q0 161 91 260.5t259 99.5h107q173 0 277 -106t104 -283v-413q0 -41 20.5 -59t61.5 -23v-240q-70 -25 -181 -25q-113 0 -165 86 h-2q-35 -43 -102 -64.5t-142 -21.5h-47q-165 0 -259 77t-94 214zM303 1409q0 98 69 167t167 69t166.5 -69t68.5 -167t-68.5 -166.5t-166.5 -68.5t-167 68.5t-69 166.5zM371 291q0 -49 37 -84t88 -35h39q51 0 89 35t38 84v20q0 49 -38 84t-89 35h-39q-51 0 -88 -35t-37 -84 v-20zM459 1409q0 -34 23 -57t57 -23t56.5 23t22.5 57t-22.5 57t-56.5 23t-57 -23t-23 -57z"/>
<glyph unicode="æ" horiz-adv-x="1626" d="M61 274q0 162 94 251t259 89h67q58 0 91.5 -16t54.5 -57h41v168v16v29q0 73 -24.5 109t-88.5 36h-37q-102 0 -102 -133v-21h-283v19q0 160 96 260t265 100h86q141 0 251 -88q116 88 261 88h49q119 0 217 -58.5t152.5 -153.5t54.5 -203v-211h-594v-119q3 -62 42.5 -104 t102.5 -42q65 0 102.5 40t43.5 85h303q0 -63 -31 -130t-85 -123.5t-135.5 -93t-172.5 -36.5h-49q-85 0 -169.5 32.5t-115.5 78.5q-28 -44 -120 -77.5t-165 -33.5h-108q-167 0 -258.5 73.5t-94.5 225.5zM371 270q0 -50 32 -84t82 -34h60q51 0 84 34t33 84v21q0 50 -33.5 84.5 t-83.5 34.5h-60q-50 0 -82 -34.5t-32 -84.5v-21zM971 696h291v15q0 159 -146 159q-145 0 -145 -159v-15z"/>
<glyph unicode="é" horiz-adv-x="1019" d="M61 420v289q0 110 46.5 203.5t138 152.5t209.5 59h110q176 0 284.5 -122.5t108.5 -292.5v-211h-593v-109q0 -73 30 -116.5t94 -43.5h41q108 0 125 129h303q0 -51 -16 -104t-49.5 -103t-79 -89t-110.5 -63t-138 -24h-110q-178 0 -286 127.5t-108 317.5zM340 1255l164 254 h348l-299 -254h-213zM365 696h290v17q0 70 -30.5 113.5t-94.5 43.5h-41q-64 0 -94 -43.5t-30 -113.5v-17z"/>
<glyph unicode="ö" horiz-adv-x="1019" d="M61 420v289q0 110 46.5 203.5t138 152.5t209.5 59h110q176 0 284.5 -122.5t108.5 -292.5v-289q0 -190 -107.5 -317.5t-285.5 -127.5h-110q-178 0 -286 127.5t-108 317.5zM154 1206v303h303v-303h-303zM365 387q0 -70 30 -114t94 -44h41q64 0 94.5 44t30.5 114v324 q0 73 -30.5 116t-94.5 43h-41q-124 0 -124 -159v-324zM567 1206v303h303v-303h-303z"/>
<glyph unicode="ø" horiz-adv-x="1019" d="M35 0l110 143q-90 120 -90 277v289q0 108 56 203t155.5 153.5t218.5 58.5h50q165 0 288 -110l68 86h94l-111 -142q91 -115 91 -249v-289q0 -186 -124 -315.5t-306 -129.5h-50q-167 0 -288 111l-68 -86h-94zM365 424l280 358q-30 88 -135 88q-145 0 -145 -159v-287z M377 319q18 -39 52.5 -62.5t80.5 -23.5q66 0 105.5 45.5t39.5 112.5v285z"/>
<glyph unicode="ü" horiz-adv-x="1060" d="M82 391v709h303v-713q0 -70 30.5 -114t94.5 -44h41q64 0 94.5 44t30.5 114v713h303v-1100h-283l-20 74h-2q-25 -43 -77.5 -71t-107.5 -28h-94q-158 0 -235.5 111t-77.5 305zM174 1206v303h303v-303h-303zM588 1206v303h303v-303h-303z"/>
<glyph unicode=" " horiz-adv-x="1019"/>
<glyph unicode=" " horiz-adv-x="2038"/>
<glyph unicode=" " horiz-adv-x="1019"/>
<glyph unicode=" " horiz-adv-x="2038"/>
<glyph unicode=" " horiz-adv-x="679"/>
<glyph unicode=" " horiz-adv-x="509"/>
<glyph unicode=" " horiz-adv-x="339"/>
<glyph unicode=" " horiz-adv-x="339"/>
<glyph unicode=" " horiz-adv-x="254"/>
<glyph unicode=" " horiz-adv-x="407"/>
<glyph unicode=" " horiz-adv-x="113"/>
<glyph unicode="‐" horiz-adv-x="737" d="M102 573v281h533v-281h-533z"/>
<glyph unicode="‑" horiz-adv-x="737" d="M102 573v281h533v-281h-533z"/>
<glyph unicode="‒" horiz-adv-x="737" d="M102 573v281h533v-281h-533z"/>
<glyph unicode="–" horiz-adv-x="1024" d="M82 614v217h860v-217h-860z"/>
<glyph unicode="—" horiz-adv-x="1536" d="M82 614v217h1372v-217h-1372z"/>
<glyph unicode="‘" horiz-adv-x="520" d="M102 944v234q0 86 27.5 157t73 117.5t100.5 74t115 34.5v-146q-53 -13 -89 -58t-38 -97h127v-316h-316z"/>
<glyph unicode="’" horiz-adv-x="520" d="M102 920v145q53 13 89 58.5t38 97.5h-127v315h316v-233q0 -86 -27.5 -157t-73 -117.5t-100.5 -74t-115 -34.5z"/>
<glyph unicode="“" horiz-adv-x="991" d="M102 944v234q0 86 27.5 157t73 117.5t100.5 74t115 34.5v-146q-53 -13 -89 -58t-38 -97h127v-316h-316zM573 944v234q0 86 27.5 157t73 117.5t100.5 74t115 34.5v-146q-53 -13 -89 -58t-38 -97h127v-316h-316z"/>
<glyph unicode="”" horiz-adv-x="991" d="M102 920v145q53 13 89 58.5t38 97.5h-127v315h316v-233q0 -86 -27.5 -157t-73 -117.5t-100.5 -74t-115 -34.5zM573 920v145q53 13 89 58.5t38 97.5h-127v315h316v-233q0 -86 -27.5 -157t-73 -117.5t-100.5 -74t-115 -34.5z"/>
<glyph unicode="•" horiz-adv-x="929" d="M205 350v520h520v-520h-520z"/>
<glyph unicode="…" horiz-adv-x="1462" d="M102 0v315h316v-315h-316zM573 0v315h316v-315h-316zM1044 0v315h316v-315h-316z"/>
<glyph unicode=" " horiz-adv-x="407"/>
<glyph unicode=" " horiz-adv-x="509"/>
<glyph unicode="€" horiz-adv-x="1306" d="M41 535l82 155h82v111h-164l82 155h82v172q0 111 63 211t170.5 161t229.5 61h94q122 0 229.5 -61t170.5 -161t63 -211v-67h-318v24q0 84 -49.5 135.5t-122.5 51.5h-41q-73 0 -122.5 -51.5t-49.5 -135.5v-129h508l-82 -155h-426v-111h365l-82 -155h-283v-86 q0 -69 51.5 -127t120.5 -58h41q69 0 120.5 58t51.5 127v20h318v-31q0 -125 -63 -232t-170 -169t-230 -62h-94q-123 0 -230 62t-170 169t-63 232v97h-164z"/>
<glyph unicode="™" horiz-adv-x="915" d="M41 1442v94h342v-94h-119v-342h-106v342h-117zM424 1100v436h104l123 -276l117 276h106v-436h-98v205q-60 -137 -88 -205h-76l-88 209v-209h-100z"/>
<glyph unicode="" horiz-adv-x="1095" d="M0 0v1096h1096v-1096h-1096z"/>
<glyph unicode="ﬁ" horiz-adv-x="1179" d="M20 840v260h123v82q0 136 94.5 231.5t233.5 95.5h180v-262h-102q-107 0 -107 -94v-53h168v-260h-164v-840h-303v840h-123zM774 0v1100h303v-1100h-303zM774 1206v303h303v-303h-303z"/>
<glyph unicode="ﬂ" horiz-adv-x="1179" d="M20 840v260h123v82q0 136 94.5 231.5t233.5 95.5h180v-262h-102q-107 0 -107 -94v-53h168v-260h-164v-840h-303v840h-123zM774 0v1509h303v-1509h-303z"/>
</font>
</defs>
</svg>
